<svg xmlns:xlink="http://www.w3.org/1999/xlink" xmlns="http://www.w3.org/2000/svg" viewBox="0 0 1258.17 181.94" width="1258.17"  height="181.94" >
                <defs>
                    <style>.cls-1 {
                            fill: #1d1d1b
                        }</style>
                </defs>
                <path class="cls-1" d="M446.44 16.63l2.26.13c11.74.67 11.74 3.06 11.72 18.57v92.82L351.54 4.52h-38.08v11.87l2.1.21c6.29.43 7.94 2.53 8.06 6v122.73c0 15.43 0 19.57-12 20.12l-2.29.12v12h46.58V165.7l-2.21-.17c-11.43-.89-11.42-5.4-11.41-22.22V43.86l119 134.75.72.81h17.08V38.07c0-17.25.93-20.29 10.82-21.23l2.2-.19V4.52h-45.67zM75.11 73.7C55.51 63.86 37 54.56 37 39.54c0-10.06 8.18-24.95 25.73-24.95 20.26 0 32.36 5.55 40 19.36l.67 1.36 12.88-.14-5.57-32.54h-8.17l-1.26.57a13.28 13.28 0 01-6.47 1.4c-3.4-.13-4.9-.69-8.15-1.35-1.38-.29-2.91-.68-4.81-1A115.19 115.19 0 0059.3 0C29 0 4.36 21.11 4.36 47.07c0 26.27 25.5 40 50.16 53.24C75.23 111.45 94.8 122 94.8 138.48c0 15.51-14.28 27.21-33.21 27.21-25.88 0-41.83-7.49-48.75-22.87l-.6-1.5H0l5.44 36.62h9.88l.69-.66c1.47-1.32 3.3-1.41 6.2-1.38s6.25.84 10.59 1.89a122 122 0 0030.8 4.15c37.49 0 64.69-21.67 64.69-51.53S100 86.22 75.12 73.7M163.58 155.52c-.18 6.75-.35 9-6.53 9.62l-2.17.21v12.25h123.76l4.2-34.61-13 .1-.53 1.65c-5.14 16.11-10.43 16.06-27.82 15.93h-31.77c-12.42 0-12.77-2.43-12.77-17.09V96.7h34c11.32 0 13.69.25 15.88 9.4l.36 2h12.38v-39h-12.18l-.3 2c-1.44 8.08-4.08 8.71-16.14 8.71h-34V21.48h45.54c11.69 0 15.52 0 18.59 12.3l.49 1.76h13l-2.14-31H155.07v12.13l2.2.15c6.24.75 6.25 3 6.33 15.41zM1197.71 113.89c-1.88-1.89-11.2-11.24-17.2-16.39 21-9.89 31.61-24.93 31.61-44.72 0-15.3-7.31-50.88-75.07-50.88-5.55 0-18.54 0-32.82.54-8.61.38-13.66.65-18.09.88l-7.43.5v12.25l2.16.1c5.35.39 7.38 1.78 7.45 7.14l-.1 126.74c-.33 10.51-1 14.89-12.74 15.44l-2.28.12v12h65.3v-12.07h-2.26c-13.18-.65-13.17-3.66-13.17-23.23V108a155.18 155.18 0 0020.74-.18c10.55 7.88 14.51 11.62 28 25.24l14.19 14.31c3.22 3.26 6 6.22 8.45 8.83 2.22 2.36 4.15 4.56 5.87 6.51 10.5 11.91 15.3 17.35 45.28 17.35 3 0 6.19 0 9.81-.14l2.72-.06v-12.05l-2.53-.23c-7.07-.66-11.32-5.23-19.81-14.33L1219.4 136zm-22.82-58.4c0 27.75-12.63 39.15-45.55 40.42-1 0-3.86 0-6.25-.27V15c3.27-.13 8.29-.13 11.23-.13 27.04-.01 40.57 13.65 40.57 40.62zM608 4.52h-26.2l-56.2 140.56c-6.67 16.63-7.88 19.63-19.11 20.42l-2.23.15v12h48.47v-11.91l-2.18-.19c-9-1-11.09-4.42-10.81-8.21.18-2.37.89-5.16 2.59-9.74l13-33.56h59.74l13 33.48c2.09 5.93 2.55 7.08 3.35 10.55l.08.4a4.56 4.56 0 01-.89 3.93c-1.26 1.58-4.37 2.53-9.67 2.94l-2.2.17v12.1h62.51v-11.88l-2.28-.12c-10.69-.49-11.66-3.13-17-17.77zm.18 91.55h-46l23.36-59.93zM962.19 0C908 0 868.73 40.19 868.73 95.58c0 50 38.89 86.36 92.46 86.36 53.85 0 94.46-40.39 94.46-93.95 0-51.81-38.43-87.99-93.46-87.99zm58.49 94.76c0 44.1-22.3 73.72-55.5 73.72-30.55 0-61.47-27.56-61.47-80.22 0-46.14 21.64-74.81 56.48-74.81 35.61 0 60.49 33.44 60.49 81.31zM856.44 141.26l-13.82.17-.69.95c-14 17.24-28.63 24.25-52 25-15.59.56-29.93-5.21-41.61-16.52-15.49-15-24.37-38.21-24.37-63.7 0-44.1 24.68-73.73 61.42-73.73 25.78 0 47.3 11.34 56.16 29.62l.68 1.34 11.45-.18-1.11-36.4h-9.39l-.49.33a6 6 0 01-3.57.79c-2.21-.08-6-1-10.89-2.3C818.19 4 803 0 784.36 0 718 0 688.3 47.31 688.3 94.21c0 53.29 36.9 87.73 94 87.73 12.76 0 24.29-2.15 33.62-3.89 6.29-1.18 12.35-2.24 17.45-2.35 1.12 0 1.9 0 2.56-.08a56.27 56.27 0 015.64.13l2.57.25z" fill="#1D1D1B"></path>
            </svg>